<svg width="24" height="20" viewBox="0 0 24 20" fill="none" xmlns="http://www.w3.org/2000/svg">
<path d="M21.3334 9.99999V4.16666H23.6667V11.1667H21.3334M21.3334 15.8333H23.6667V13.5H21.3334M9.66671 11.1667C12.7817 11.1667 19 12.73 19 15.8333V19.3333H0.333374V15.8333C0.333374 12.73 6.55171 11.1667 9.66671 11.1667ZM9.66671 0.666656C10.9044 0.666656 12.0914 1.15832 12.9665 2.03349C13.8417 2.90866 14.3334 4.09565 14.3334 5.33332C14.3334 6.571 13.8417 7.75799 12.9665 8.63315C12.0914 9.50832 10.9044 9.99999 9.66671 9.99999C8.42903 9.99999 7.24205 9.50832 6.36688 8.63315C5.49171 7.75799 5.00004 6.571 5.00004 5.33332C5.00004 4.09565 5.49171 2.90866 6.36688 2.03349C7.24205 1.15832 8.42903 0.666656 9.66671 0.666656ZM9.66671 13.3833C6.20171 13.3833 2.55004 15.0867 2.55004 15.8333V17.1167H16.7834V15.8333C16.7834 15.0867 13.1317 13.3833 9.66671 13.3833ZM9.66671 2.88332C9.01693 2.88332 8.39376 3.14145 7.9343 3.60091C7.47483 4.06038 7.21671 4.68354 7.21671 5.33332C7.21671 5.9831 7.47483 6.60627 7.9343 7.06573C8.39376 7.5252 9.01693 7.78332 9.66671 7.78332C10.3165 7.78332 10.9397 7.5252 11.3991 7.06573C11.8586 6.60627 12.1167 5.9831 12.1167 5.33332C12.1167 4.68354 11.8586 4.06038 11.3991 3.60091C10.9397 3.14145 10.3165 2.88332 9.66671 2.88332Z" fill="black"/>
</svg>
